<svg width="130" height="54" viewBox="0 0 130 54" fill="none" xmlns="http://www.w3.org/2000/svg">
<path d="M27 45C31.7739 45 36.3523 43.1036 39.7279 39.7279C43.1036 36.3523 45 31.7739 45 27C45 22.2261 43.1036 17.6477 39.7279 14.2721C36.3523 10.8964 31.7739 9 27 9M27 45C22.2261 45 17.6477 43.1036 14.2721 39.7279C10.8964 36.3523 9 31.7739 9 27M27 45V49.5M27 9C22.2261 9 17.6477 10.8964 14.2721 14.2721C10.8964 17.6477 9 22.2261 9 27M27 9V4.5M9 27H4.5M31.5 27C31.5 28.1935 31.0259 29.3381 30.182 30.182C29.3381 31.0259 28.1935 31.5 27 31.5C25.8065 31.5 24.6619 31.0259 23.818 30.182C22.9741 29.3381 22.5 28.1935 22.5 27C22.5 25.8065 22.9741 24.6619 23.818 23.818C24.6619 22.9741 25.8065 22.5 27 22.5C28.1935 22.5 29.3381 22.9741 30.182 23.818C31.0259 24.6619 31.5 25.8065 31.5 27ZM31.5 27H49.5M38.25 46.485L36 42.5925M24.75 23.1075L15.75 7.515M46.485 38.25L42.5925 36M7.515 15.75L11.4075 18M46.485 15.75L42.5925 18M7.515 38.25L11.4075 36M38.25 7.515L36 11.4075M24.75 30.8925L15.75 46.485" stroke="white" stroke-width="4.5" stroke-linecap="round" stroke-linejoin="round"/>
<path d="M63.056 22V10.32H65.184L66.352 14.064C66.4693 14.416 66.5707 14.7573 66.656 15.088C66.7413 15.408 66.8 15.648 66.832 15.808C66.8747 15.648 66.9333 15.408 67.008 15.088C67.0933 14.7573 67.1893 14.416 67.296 14.064L68.416 10.32H70.544V22H68.912V18.064C68.912 17.5627 68.9227 17.008 68.944 16.4C68.976 15.7813 69.0187 15.1627 69.072 14.544C69.1253 13.9147 69.1787 13.3173 69.232 12.752C69.2853 12.176 69.3333 11.6747 69.376 11.248L67.648 16.928H65.984L64.224 11.248C64.2773 11.664 64.3307 12.1493 64.384 12.704C64.4373 13.248 64.4853 13.8293 64.528 14.448C64.5707 15.0667 64.608 15.6907 64.64 16.32C64.672 16.9387 64.688 17.52 64.688 18.064V22H63.056ZM72.2818 22L75.2578 10.32H77.5298L80.5058 22H78.7618L78.0578 19.04H74.7458L74.0418 22H72.2818ZM75.0658 17.616H77.7218L76.9218 14.24C76.7831 13.6427 76.6658 13.1253 76.5698 12.688C76.4844 12.24 76.4258 11.936 76.3938 11.776C76.3618 11.936 76.3031 12.24 76.2178 12.688C76.1324 13.1253 76.0151 13.6373 75.8658 14.224L75.0658 17.616ZM82.4835 22V10.32H84.6595L88.0675 20.032C88.0462 19.7227 88.0195 19.3547 87.9875 18.928C87.9555 18.5013 87.9288 18.0587 87.9075 17.6C87.8968 17.1413 87.8915 16.7253 87.8915 16.352V10.32H89.4915V22H87.3155L83.9235 12.288C83.9448 12.5653 83.9662 12.912 83.9875 13.328C84.0195 13.744 84.0408 14.176 84.0515 14.624C84.0728 15.072 84.0835 15.488 84.0835 15.872V22H82.4835ZM91.4693 22L94.4453 10.32H96.7173L99.6933 22H97.9493L97.2453 19.04H93.9333L93.2293 22H91.4693ZM94.2533 17.616H96.9093L96.1093 14.24C95.9706 13.6427 95.8533 13.1253 95.7573 12.688C95.6719 12.24 95.6133 11.936 95.5813 11.776C95.5493 11.936 95.4906 12.24 95.4053 12.688C95.3199 13.1253 95.2026 13.6373 95.0533 14.224L94.2533 17.616ZM105.239 22.16C104.514 22.16 103.879 22.0267 103.335 21.76C102.802 21.4827 102.386 21.088 102.087 20.576C101.799 20.0533 101.655 19.4453 101.655 18.752V13.568C101.655 12.864 101.799 12.256 102.087 11.744C102.386 11.232 102.802 10.8427 103.335 10.576C103.879 10.2987 104.514 10.16 105.239 10.16C105.964 10.16 106.594 10.2987 107.127 10.576C107.66 10.8533 108.071 11.248 108.359 11.76C108.658 12.2613 108.807 12.864 108.807 13.568H107.079C107.079 12.96 106.919 12.496 106.599 12.176C106.279 11.856 105.826 11.696 105.239 11.696C104.652 11.696 104.194 11.856 103.863 12.176C103.543 12.496 103.383 12.9547 103.383 13.552V18.752C103.383 19.3493 103.543 19.8133 103.863 20.144C104.194 20.4747 104.652 20.64 105.239 20.64C105.826 20.64 106.279 20.4747 106.599 20.144C106.919 19.8133 107.079 19.3493 107.079 18.752V17.44H104.903V15.92H108.807V18.752C108.807 19.4453 108.658 20.048 108.359 20.56C108.071 21.072 107.66 21.4667 107.127 21.744C106.594 22.0213 105.964 22.16 105.239 22.16ZM111.473 22V10.32H118.337V11.856H113.169V15.168H117.777V16.688H113.169V20.464H118.337V22H111.473ZM120.907 22V10.32H124.571C125.307 10.32 125.947 10.464 126.491 10.752C127.035 11.0293 127.456 11.424 127.755 11.936C128.064 12.448 128.219 13.0507 128.219 13.744C128.219 14.5227 128.016 15.2 127.611 15.776C127.216 16.3413 126.677 16.7413 125.995 16.976L128.378 22H126.411L124.283 17.2H122.635V22H120.907ZM122.635 15.68H124.571C125.147 15.68 125.605 15.5093 125.947 15.168C126.288 14.816 126.459 14.352 126.459 13.776C126.459 13.1787 126.288 12.7093 125.947 12.368C125.605 12.0267 125.147 11.856 124.571 11.856H122.635V15.68ZM66.848 43.16C66.0587 43.16 65.3813 43.032 64.816 42.776C64.2507 42.5093 63.8133 42.136 63.504 41.656C63.1947 41.1653 63.04 40.584 63.04 39.912H64.752C64.752 40.4453 64.9387 40.8667 65.312 41.176C65.6853 41.4747 66.2027 41.624 66.864 41.624C67.4827 41.624 67.968 41.4747 68.32 41.176C68.672 40.8773 68.848 40.4667 68.848 39.944C68.848 39.5067 68.7253 39.128 68.48 38.808C68.2453 38.488 67.904 38.2693 67.456 38.152L65.984 37.72C65.1307 37.4747 64.4693 37.0587 64 36.472C63.5413 35.8747 63.312 35.1653 63.312 34.344C63.312 33.704 63.456 33.144 63.744 32.664C64.032 32.184 64.4427 31.8107 64.976 31.544C65.5093 31.2773 66.1387 31.144 66.864 31.144C67.9307 31.144 68.784 31.432 69.424 32.008C70.0747 32.584 70.4053 33.3573 70.416 34.328H68.688C68.688 33.816 68.5227 33.416 68.192 33.128C67.872 32.8293 67.4187 32.68 66.832 32.68C66.2667 32.68 65.824 32.8187 65.504 33.096C65.184 33.3627 65.024 33.7413 65.024 34.232C65.024 34.6693 65.1413 35.048 65.376 35.368C65.6213 35.688 65.968 35.912 66.416 36.04L67.904 36.488C68.7573 36.7227 69.4133 37.1387 69.872 37.736C70.3307 38.3333 70.56 39.048 70.56 39.88C70.56 40.5307 70.4053 41.1067 70.096 41.608C69.7867 42.0987 69.3547 42.4827 68.8 42.76C68.2453 43.0267 67.5947 43.16 66.848 43.16ZM73.0978 43V31.32H79.9618V32.856H74.7938V36.168H79.4018V37.688H74.7938V41.464H79.9618V43H73.0978ZM82.5315 43V31.32H86.1955C86.9315 31.32 87.5715 31.464 88.1155 31.752C88.6595 32.0293 89.0808 32.424 89.3795 32.936C89.6888 33.448 89.8435 34.0507 89.8435 34.744C89.8435 35.5227 89.6408 36.2 89.2355 36.776C88.8408 37.3413 88.3022 37.7413 87.6195 37.976L90.0035 43H88.0355L85.9075 38.2H84.2595V43H82.5315ZM84.2595 36.68H86.1955C86.7715 36.68 87.2302 36.5093 87.5715 36.168C87.9128 35.816 88.0835 35.352 88.0835 34.776C88.0835 34.1787 87.9128 33.7093 87.5715 33.368C87.2302 33.0267 86.7715 32.856 86.1955 32.856H84.2595V36.68ZM94.4293 43L91.4693 31.32H93.2453L95.1173 39.096C95.2346 39.5547 95.3359 40.0133 95.4213 40.472C95.5173 40.92 95.5866 41.272 95.6293 41.528C95.6719 41.272 95.7306 40.92 95.8053 40.472C95.8906 40.0133 95.9919 39.5493 96.1093 39.08L97.9653 31.32H99.6933L96.7173 43H94.4293ZM101.943 43V41.464H104.295V32.856H101.943V31.32H108.407V32.856H106.055V41.464H108.407V43H101.943ZM114.833 43.16C114.107 43.16 113.473 43.0267 112.929 42.76C112.395 42.4827 111.979 42.088 111.681 41.576C111.393 41.0533 111.249 40.4453 111.249 39.752V34.568C111.249 33.864 111.393 33.256 111.681 32.744C111.979 32.232 112.395 31.8427 112.929 31.576C113.473 31.2987 114.107 31.16 114.833 31.16C115.558 31.16 116.187 31.2987 116.721 31.576C117.254 31.8533 117.665 32.248 117.953 32.76C118.251 33.2613 118.401 33.864 118.401 34.568H116.673C116.673 33.96 116.513 33.496 116.193 33.176C115.873 32.856 115.419 32.696 114.833 32.696C114.246 32.696 113.787 32.856 113.457 33.176C113.137 33.496 112.977 33.9547 112.977 34.552V39.752C112.977 40.3493 113.137 40.8133 113.457 41.144C113.787 41.464 114.246 41.624 114.833 41.624C115.419 41.624 115.873 41.464 116.193 41.144C116.513 40.8133 116.673 40.3493 116.673 39.752H118.401C118.401 40.4453 118.251 41.048 117.953 41.56C117.665 42.072 117.254 42.4667 116.721 42.744C116.187 43.0213 115.558 43.16 114.833 43.16ZM121.067 43V31.32H127.931V32.856H122.763V36.168H127.371V37.688H122.763V41.464H127.931V43H121.067Z" fill="white"/>
</svg>
