<svg width="71" height="26" viewBox="0 0 71 26" fill="none" xmlns="http://www.w3.org/2000/svg">
<path d="M13.5 22.2C15.94 22.2 18.28 21.2307 20.0054 19.5054C21.7307 17.78 22.7 15.44 22.7 13C22.7 10.56 21.7307 8.21995 20.0054 6.49462C18.28 4.76928 15.94 3.8 13.5 3.8M13.5 22.2C11.06 22.2 8.71995 21.2307 6.99462 19.5054C5.26928 17.78 4.3 15.44 4.3 13M13.5 22.2V24.5M13.5 3.8C11.06 3.8 8.71995 4.76928 6.99462 6.49462C5.26928 8.21995 4.3 10.56 4.3 13M13.5 3.8V1.5M4.3 13H2M15.8 13C15.8 13.61 15.5577 14.195 15.1263 14.6263C14.695 15.0577 14.11 15.3 13.5 15.3C12.89 15.3 12.305 15.0577 11.8737 14.6263C11.4423 14.195 11.2 13.61 11.2 13C11.2 12.39 11.4423 11.805 11.8737 11.3737C12.305 10.9423 12.89 10.7 13.5 10.7C14.11 10.7 14.695 10.9423 15.1263 11.3737C15.5577 11.805 15.8 12.39 15.8 13ZM15.8 13H25M19.25 22.959L18.1 20.9695M12.35 11.0105L7.75 3.041M23.459 18.75L21.4695 17.6M3.541 7.25L5.5305 8.4M23.459 7.25L21.4695 8.4M3.541 18.75L5.5305 17.6M19.25 3.041L18.1 5.0305M12.35 14.9895L7.75 22.959" stroke="#8B5CF6" stroke-width="2.5" stroke-linecap="round" stroke-linejoin="round"/>
<path d="M29.66 10V2.7H30.99L31.72 5.04C31.7933 5.26 31.8567 5.47333 31.91 5.68C31.9633 5.88 32 6.03 32.02 6.13C32.0467 6.03 32.0833 5.88 32.13 5.68C32.1833 5.47333 32.2433 5.26 32.31 5.04L33.01 2.7H34.34V10H33.32V7.54C33.32 7.22667 33.3267 6.88 33.34 6.5C33.36 6.11333 33.3867 5.72667 33.42 5.34C33.4533 4.94667 33.4867 4.57333 33.52 4.22C33.5533 3.86 33.5833 3.54667 33.61 3.28L32.53 6.83H31.49L30.39 3.28C30.4233 3.54 30.4567 3.84333 30.49 4.19C30.5233 4.53 30.5533 4.89333 30.58 5.28C30.6067 5.66667 30.63 6.05667 30.65 6.45C30.67 6.83667 30.68 7.2 30.68 7.54V10H29.66ZM35.4261 10L37.2861 2.7H38.7061L40.5661 10H39.4761L39.0361 8.15H36.9661L36.5261 10H35.4261ZM37.1661 7.26H38.8261L38.3261 5.15C38.2394 4.77667 38.1661 4.45333 38.1061 4.18C38.0528 3.9 38.0161 3.71 37.9961 3.61C37.9761 3.71 37.9394 3.9 37.8861 4.18C37.8328 4.45333 37.7594 4.77333 37.6661 5.14L37.1661 7.26ZM41.8022 10V2.7H43.1622L45.2922 8.77C45.2789 8.57667 45.2622 8.34667 45.2422 8.08C45.2222 7.81333 45.2055 7.53667 45.1922 7.25C45.1855 6.96333 45.1822 6.70333 45.1822 6.47V2.7H46.1822V10H44.8222L42.7022 3.93C42.7155 4.10333 42.7289 4.32 42.7422 4.58C42.7622 4.84 42.7755 5.11 42.7822 5.39C42.7955 5.67 42.8022 5.93 42.8022 6.17V10H41.8022ZM47.4183 10L49.2783 2.7H50.6983L52.5583 10H51.4683L51.0283 8.15H48.9583L48.5183 10H47.4183ZM49.1583 7.26H50.8183L50.3183 5.15C50.2316 4.77667 50.1583 4.45333 50.0983 4.18C50.0449 3.9 50.0083 3.71 49.9883 3.61C49.9683 3.71 49.9316 3.9 49.8783 4.18C49.8249 4.45333 49.7516 4.77333 49.6583 5.14L49.1583 7.26ZM56.0244 10.1C55.571 10.1 55.1744 10.0167 54.8344 9.85C54.501 9.67667 54.241 9.43 54.0544 9.11C53.8744 8.78333 53.7844 8.40333 53.7844 7.97V4.73C53.7844 4.29 53.8744 3.91 54.0544 3.59C54.241 3.27 54.501 3.02667 54.8344 2.86C55.1744 2.68667 55.571 2.6 56.0244 2.6C56.4777 2.6 56.871 2.68667 57.2044 2.86C57.5377 3.03333 57.7944 3.28 57.9744 3.6C58.161 3.91333 58.2544 4.29 58.2544 4.73H57.1744C57.1744 4.35 57.0744 4.06 56.8744 3.86C56.6744 3.66 56.391 3.56 56.0244 3.56C55.6577 3.56 55.371 3.66 55.1644 3.86C54.9644 4.06 54.8644 4.34667 54.8644 4.72V7.97C54.8644 8.34333 54.9644 8.63333 55.1644 8.84C55.371 9.04667 55.6577 9.15 56.0244 9.15C56.391 9.15 56.6744 9.04667 56.8744 8.84C57.0744 8.63333 57.1744 8.34333 57.1744 7.97V7.15H55.8144V6.2H58.2544V7.97C58.2544 8.40333 58.161 8.78 57.9744 9.1C57.7944 9.42 57.5377 9.66667 57.2044 9.84C56.871 10.0133 56.4777 10.1 56.0244 10.1ZM59.9205 10V2.7H64.2105V3.66H60.9805V5.73H63.8605V6.68H60.9805V9.04H64.2105V10H59.9205ZM65.8166 10V2.7H68.1066C68.5666 2.7 68.9666 2.79 69.3066 2.97C69.6466 3.14333 69.9099 3.39 70.0966 3.71C70.2899 4.03 70.3866 4.40667 70.3866 4.84C70.3866 5.32667 70.2599 5.75 70.0066 6.11C69.7599 6.46333 69.4232 6.71333 68.9966 6.86L70.4866 10H69.2566L67.9266 7H66.8966V10H65.8166ZM66.8966 6.05H68.1066C68.4666 6.05 68.7532 5.94333 68.9666 5.73C69.1799 5.51 69.2866 5.22 69.2866 4.86C69.2866 4.48667 69.1799 4.19333 68.9666 3.98C68.7532 3.76667 68.4666 3.66 68.1066 3.66H66.8966V6.05ZM32.03 23.1C31.5367 23.1 31.1133 23.02 30.76 22.86C30.4067 22.6933 30.1333 22.46 29.94 22.16C29.7467 21.8533 29.65 21.49 29.65 21.07H30.72C30.72 21.4033 30.8367 21.6667 31.07 21.86C31.3033 22.0467 31.6267 22.14 32.04 22.14C32.4267 22.14 32.73 22.0467 32.95 21.86C33.17 21.6733 33.28 21.4167 33.28 21.09C33.28 20.8167 33.2033 20.58 33.05 20.38C32.9033 20.18 32.69 20.0433 32.41 19.97L31.49 19.7C30.9567 19.5467 30.5433 19.2867 30.25 18.92C29.9633 18.5467 29.82 18.1033 29.82 17.59C29.82 17.19 29.91 16.84 30.09 16.54C30.27 16.24 30.5267 16.0067 30.86 15.84C31.1933 15.6733 31.5867 15.59 32.04 15.59C32.7067 15.59 33.24 15.77 33.64 16.13C34.0467 16.49 34.2533 16.9733 34.26 17.58H33.18C33.18 17.26 33.0767 17.01 32.87 16.83C32.67 16.6433 32.3867 16.55 32.02 16.55C31.6667 16.55 31.39 16.6367 31.19 16.81C30.99 16.9767 30.89 17.2133 30.89 17.52C30.89 17.7933 30.9633 18.03 31.11 18.23C31.2633 18.43 31.48 18.57 31.76 18.65L32.69 18.93C33.2233 19.0767 33.6333 19.3367 33.92 19.71C34.2067 20.0833 34.35 20.53 34.35 21.05C34.35 21.4567 34.2533 21.8167 34.06 22.13C33.8667 22.4367 33.5967 22.6767 33.25 22.85C32.9033 23.0167 32.4967 23.1 32.03 23.1ZM35.9361 23V15.7H40.2261V16.66H36.9961V18.73H39.8761V19.68H36.9961V22.04H40.2261V23H35.9361ZM41.8322 23V15.7H44.1222C44.5822 15.7 44.9822 15.79 45.3222 15.97C45.6622 16.1433 45.9255 16.39 46.1122 16.71C46.3055 17.03 46.4022 17.4067 46.4022 17.84C46.4022 18.3267 46.2755 18.75 46.0222 19.11C45.7755 19.4633 45.4389 19.7133 45.0122 19.86L46.5022 23H45.2722L43.9422 20H42.9122V23H41.8322ZM42.9122 19.05H44.1222C44.4822 19.05 44.7689 18.9433 44.9822 18.73C45.1955 18.51 45.3022 18.22 45.3022 17.86C45.3022 17.4867 45.1955 17.1933 44.9822 16.98C44.7689 16.7667 44.4822 16.66 44.1222 16.66H42.9122V19.05ZM49.2683 23L47.4183 15.7H48.5283L49.6983 20.56C49.7716 20.8467 49.8349 21.1333 49.8883 21.42C49.9483 21.7 49.9916 21.92 50.0183 22.08C50.0449 21.92 50.0816 21.7 50.1283 21.42C50.1816 21.1333 50.2449 20.8433 50.3183 20.55L51.4783 15.7H52.5583L50.6983 23H49.2683ZM53.9644 23V22.04H55.4344V16.66H53.9644V15.7H58.0044V16.66H56.5344V22.04H58.0044V23H53.9644ZM62.0205 23.1C61.5671 23.1 61.1705 23.0167 60.8305 22.85C60.4971 22.6767 60.2371 22.43 60.0505 22.11C59.8705 21.7833 59.7805 21.4033 59.7805 20.97V17.73C59.7805 17.29 59.8705 16.91 60.0505 16.59C60.2371 16.27 60.4971 16.0267 60.8305 15.86C61.1705 15.6867 61.5671 15.6 62.0205 15.6C62.4738 15.6 62.8671 15.6867 63.2005 15.86C63.5338 16.0333 63.7905 16.28 63.9705 16.6C64.1571 16.9133 64.2505 17.29 64.2505 17.73H63.1705C63.1705 17.35 63.0705 17.06 62.8705 16.86C62.6705 16.66 62.3871 16.56 62.0205 16.56C61.6538 16.56 61.3671 16.66 61.1605 16.86C60.9605 17.06 60.8605 17.3467 60.8605 17.72V20.97C60.8605 21.3433 60.9605 21.6333 61.1605 21.84C61.3671 22.04 61.6538 22.14 62.0205 22.14C62.3871 22.14 62.6705 22.04 62.8705 21.84C63.0705 21.6333 63.1705 21.3433 63.1705 20.97H64.2505C64.2505 21.4033 64.1571 21.78 63.9705 22.1C63.7905 22.42 63.5338 22.6667 63.2005 22.84C62.8671 23.0133 62.4738 23.1 62.0205 23.1ZM65.9166 23V15.7H70.2066V16.66H66.9766V18.73H69.8566V19.68H66.9766V22.04H70.2066V23H65.9166Z" fill="black"/>
</svg>
